<mxfile host="app.diagrams.net" modified="2022-03-08T11:05:04.187Z" agent="5.0 (Macintosh; Intel Mac OS X 10_15_7) AppleWebKit/605.1.15 (KHTML, like Gecko) Version/15.3 Safari/605.1.15" etag="qD6nbrBI3BQzg3VlVqve" version="16.6.7" type="github">
  <diagram id="JMVRiUpRXf2oRm7oiu-H" name="Page-1">
    <mxGraphModel dx="755" dy="593" grid="1" gridSize="10" guides="1" tooltips="1" connect="1" arrows="1" fold="1" page="1" pageScale="1" pageWidth="827" pageHeight="1169" math="0" shadow="0">
      <root>
        <mxCell id="0" />
        <mxCell id="1" parent="0" />
        <mxCell id="0A9ruwSQqc1JBdKSLowd-9" value="" style="fontSize=12;html=1;endArrow=ERoneToMany;rounded=0;edgeStyle=orthogonalEdgeStyle;" edge="1" parent="1">
          <mxGeometry width="100" height="100" relative="1" as="geometry">
            <mxPoint x="80" y="200" as="sourcePoint" />
            <mxPoint x="40" y="130" as="targetPoint" />
          </mxGeometry>
        </mxCell>
        <mxCell id="0A9ruwSQqc1JBdKSLowd-10" value="" style="verticalLabelPosition=bottom;verticalAlign=top;html=1;shape=mxgraph.basic.rect;fillColor2=none;strokeWidth=1;size=0;indent=5;" vertex="1" parent="1">
          <mxGeometry x="80" y="180" width="40" height="40" as="geometry" />
        </mxCell>
        <mxCell id="0A9ruwSQqc1JBdKSLowd-11" value="" style="endArrow=open;endFill=1;endSize=12;html=1;rounded=0;" edge="1" parent="1">
          <mxGeometry width="160" relative="1" as="geometry">
            <mxPoint x="120" y="199.5" as="sourcePoint" />
            <mxPoint x="160" y="200" as="targetPoint" />
          </mxGeometry>
        </mxCell>
        <mxCell id="0A9ruwSQqc1JBdKSLowd-12" value="" style="verticalLabelPosition=bottom;verticalAlign=top;html=1;shape=mxgraph.basic.acute_triangle;dx=0.5;rotation=90;" vertex="1" parent="1">
          <mxGeometry x="156" y="180" width="50" height="40" as="geometry" />
        </mxCell>
        <mxCell id="0A9ruwSQqc1JBdKSLowd-13" value="" style="verticalLabelPosition=bottom;verticalAlign=top;html=1;shape=mxgraph.flowchart.or;" vertex="1" parent="1">
          <mxGeometry x="230" y="180" width="40" height="40" as="geometry" />
        </mxCell>
        <mxCell id="0A9ruwSQqc1JBdKSLowd-14" value="" style="endArrow=open;endFill=1;endSize=12;html=1;rounded=0;" edge="1" parent="1">
          <mxGeometry width="160" relative="1" as="geometry">
            <mxPoint x="200" y="199.5" as="sourcePoint" />
            <mxPoint x="230" y="200" as="targetPoint" />
          </mxGeometry>
        </mxCell>
        <mxCell id="0A9ruwSQqc1JBdKSLowd-15" value="" style="endArrow=open;endFill=1;endSize=12;html=1;rounded=0;" edge="1" parent="1">
          <mxGeometry width="160" relative="1" as="geometry">
            <mxPoint x="270" y="199.5" as="sourcePoint" />
            <mxPoint x="300" y="200" as="targetPoint" />
            <Array as="points" />
          </mxGeometry>
        </mxCell>
        <mxCell id="0A9ruwSQqc1JBdKSLowd-17" value="" style="verticalLabelPosition=bottom;verticalAlign=top;html=1;shape=mxgraph.basic.rect;fillColor2=none;strokeWidth=1;size=0;indent=5;" vertex="1" parent="1">
          <mxGeometry x="300" y="180" width="40" height="40" as="geometry" />
        </mxCell>
        <mxCell id="0A9ruwSQqc1JBdKSLowd-20" value="" style="verticalLabelPosition=bottom;verticalAlign=top;html=1;shape=mxgraph.flowchart.or;" vertex="1" parent="1">
          <mxGeometry x="370" y="180" width="40" height="40" as="geometry" />
        </mxCell>
        <mxCell id="0A9ruwSQqc1JBdKSLowd-21" value="" style="endArrow=open;endFill=1;endSize=12;html=1;rounded=0;" edge="1" parent="1">
          <mxGeometry width="160" relative="1" as="geometry">
            <mxPoint x="340" y="199.5" as="sourcePoint" />
            <mxPoint x="370" y="200" as="targetPoint" />
          </mxGeometry>
        </mxCell>
        <mxCell id="0A9ruwSQqc1JBdKSLowd-27" value="" style="verticalLabelPosition=bottom;verticalAlign=top;html=1;shape=mxgraph.basic.rect;fillColor2=none;strokeWidth=1;size=0;indent=5;" vertex="1" parent="1">
          <mxGeometry x="440" y="180" width="40" height="40" as="geometry" />
        </mxCell>
        <mxCell id="0A9ruwSQqc1JBdKSLowd-28" value="" style="endArrow=open;endFill=1;endSize=12;html=1;rounded=0;" edge="1" parent="1">
          <mxGeometry width="160" relative="1" as="geometry">
            <mxPoint x="480" y="199.5" as="sourcePoint" />
            <mxPoint x="520" y="200" as="targetPoint" />
          </mxGeometry>
        </mxCell>
        <mxCell id="0A9ruwSQqc1JBdKSLowd-29" value="" style="verticalLabelPosition=bottom;verticalAlign=top;html=1;shape=mxgraph.basic.acute_triangle;dx=0.5;rotation=90;" vertex="1" parent="1">
          <mxGeometry x="516" y="180" width="50" height="40" as="geometry" />
        </mxCell>
        <mxCell id="0A9ruwSQqc1JBdKSLowd-30" value="" style="endArrow=open;endFill=1;endSize=12;html=1;rounded=0;exitX=1;exitY=0.5;exitDx=0;exitDy=0;exitPerimeter=0;" edge="1" parent="1" source="0A9ruwSQqc1JBdKSLowd-20">
          <mxGeometry width="160" relative="1" as="geometry">
            <mxPoint x="414" y="199.5" as="sourcePoint" />
            <mxPoint x="440" y="200" as="targetPoint" />
          </mxGeometry>
        </mxCell>
        <mxCell id="0A9ruwSQqc1JBdKSLowd-31" value="" style="verticalLabelPosition=bottom;verticalAlign=top;html=1;shape=mxgraph.basic.rect;fillColor2=none;strokeWidth=1;size=20;indent=5;" vertex="1" parent="1">
          <mxGeometry x="600" y="160" width="40" height="80" as="geometry" />
        </mxCell>
        <mxCell id="0A9ruwSQqc1JBdKSLowd-32" value="" style="endArrow=open;endFill=1;endSize=12;html=1;rounded=0;" edge="1" parent="1">
          <mxGeometry width="160" relative="1" as="geometry">
            <mxPoint x="560" y="200" as="sourcePoint" />
            <mxPoint x="600" y="200.5" as="targetPoint" />
          </mxGeometry>
        </mxCell>
        <mxCell id="0A9ruwSQqc1JBdKSLowd-33" value="" style="strokeWidth=1;html=1;shape=mxgraph.flowchart.start_2;whiteSpace=wrap;shadow=0;sketch=0;" vertex="1" parent="1">
          <mxGeometry x="225" y="270" width="50" height="50" as="geometry" />
        </mxCell>
        <mxCell id="0A9ruwSQqc1JBdKSLowd-37" value="" style="endArrow=none;html=1;rounded=0;strokeWidth=1;curved=1;edgeStyle=orthogonalEdgeStyle;shadow=0;sketch=0;" edge="1" parent="1">
          <mxGeometry width="50" height="50" relative="1" as="geometry">
            <mxPoint x="229.5" y="295" as="sourcePoint" />
            <mxPoint x="270.5" y="295" as="targetPoint" />
            <Array as="points">
              <mxPoint x="229.5" y="285" />
              <mxPoint x="250.5" y="285" />
              <mxPoint x="250.5" y="305" />
              <mxPoint x="270.5" y="305" />
            </Array>
          </mxGeometry>
        </mxCell>
        <mxCell id="0A9ruwSQqc1JBdKSLowd-38" value="" style="endArrow=classic;html=1;rounded=0;shadow=0;sketch=0;strokeWidth=1;curved=1;entryX=0.5;entryY=1;entryDx=0;entryDy=0;entryPerimeter=0;" edge="1" parent="1" target="0A9ruwSQqc1JBdKSLowd-13">
          <mxGeometry width="50" height="50" relative="1" as="geometry">
            <mxPoint x="250" y="270" as="sourcePoint" />
            <mxPoint x="300" y="220" as="targetPoint" />
          </mxGeometry>
        </mxCell>
        <mxCell id="0A9ruwSQqc1JBdKSLowd-39" value="" style="strokeWidth=1;html=1;shape=mxgraph.flowchart.start_2;whiteSpace=wrap;shadow=0;sketch=0;" vertex="1" parent="1">
          <mxGeometry x="365" y="270" width="50" height="50" as="geometry" />
        </mxCell>
        <mxCell id="0A9ruwSQqc1JBdKSLowd-40" value="" style="endArrow=none;html=1;rounded=0;strokeWidth=1;curved=1;edgeStyle=orthogonalEdgeStyle;shadow=0;sketch=0;" edge="1" parent="1">
          <mxGeometry width="50" height="50" relative="1" as="geometry">
            <mxPoint x="369.5" y="295" as="sourcePoint" />
            <mxPoint x="410.5" y="295" as="targetPoint" />
            <Array as="points">
              <mxPoint x="369.5" y="285" />
              <mxPoint x="390.5" y="285" />
              <mxPoint x="390.5" y="305" />
              <mxPoint x="410.5" y="305" />
            </Array>
          </mxGeometry>
        </mxCell>
        <mxCell id="0A9ruwSQqc1JBdKSLowd-41" value="" style="endArrow=classic;html=1;rounded=0;shadow=0;sketch=0;strokeWidth=1;curved=1;entryX=0.5;entryY=1;entryDx=0;entryDy=0;entryPerimeter=0;" edge="1" parent="1">
          <mxGeometry width="50" height="50" relative="1" as="geometry">
            <mxPoint x="390" y="270" as="sourcePoint" />
            <mxPoint x="390" y="220" as="targetPoint" />
          </mxGeometry>
        </mxCell>
        <mxCell id="0A9ruwSQqc1JBdKSLowd-42" value="" style="verticalLabelPosition=bottom;verticalAlign=top;html=1;shape=mxgraph.basic.rect;fillColor2=none;strokeWidth=1;size=20;indent=5;" vertex="1" parent="1">
          <mxGeometry x="660" y="160" width="40" height="80" as="geometry" />
        </mxCell>
        <mxCell id="0A9ruwSQqc1JBdKSLowd-43" value="" style="endArrow=classic;html=1;rounded=0;shadow=0;sketch=0;strokeWidth=1;curved=1;" edge="1" parent="1">
          <mxGeometry width="50" height="50" relative="1" as="geometry">
            <mxPoint x="640" y="200" as="sourcePoint" />
            <mxPoint x="660" y="200" as="targetPoint" />
          </mxGeometry>
        </mxCell>
        <mxCell id="0A9ruwSQqc1JBdKSLowd-44" value="" style="rounded=0;whiteSpace=wrap;html=1;shadow=0;strokeWidth=1;" vertex="1" parent="1">
          <mxGeometry x="729.5" y="185" width="14" height="30" as="geometry" />
        </mxCell>
        <mxCell id="0A9ruwSQqc1JBdKSLowd-45" value="" style="shape=trapezoid;perimeter=trapezoidPerimeter;whiteSpace=wrap;html=1;fixedSize=1;shadow=0;strokeWidth=1;rotation=-90;" vertex="1" parent="1">
          <mxGeometry x="720" y="187.5" width="69" height="25" as="geometry" />
        </mxCell>
        <mxCell id="0A9ruwSQqc1JBdKSLowd-48" value="" style="endArrow=classic;html=1;rounded=0;shadow=0;sketch=0;strokeWidth=1;curved=1;entryX=0;entryY=0.5;entryDx=0;entryDy=0;" edge="1" parent="1" target="0A9ruwSQqc1JBdKSLowd-44">
          <mxGeometry width="50" height="50" relative="1" as="geometry">
            <mxPoint x="700" y="200" as="sourcePoint" />
            <mxPoint x="750" y="150" as="targetPoint" />
          </mxGeometry>
        </mxCell>
        <mxCell id="0A9ruwSQqc1JBdKSLowd-54" value="" style="shape=requiredInterface;html=1;verticalLabelPosition=bottom;sketch=0;shadow=0;strokeWidth=1;rotation=90;" vertex="1" parent="1">
          <mxGeometry x="100.63" y="190.63" width="5" height="8.75" as="geometry" />
        </mxCell>
        <mxCell id="0A9ruwSQqc1JBdKSLowd-60" value="" style="shape=requiredInterface;html=1;verticalLabelPosition=bottom;sketch=0;shadow=0;strokeWidth=1;rotation=-90;" vertex="1" parent="1">
          <mxGeometry x="91.63" y="185.63" width="5" height="8.75" as="geometry" />
        </mxCell>
        <mxCell id="0A9ruwSQqc1JBdKSLowd-61" value="" style="shape=requiredInterface;html=1;verticalLabelPosition=bottom;sketch=0;shadow=0;strokeWidth=1;rotation=90;" vertex="1" parent="1">
          <mxGeometry x="100.63" y="197.63" width="5" height="8.75" as="geometry" />
        </mxCell>
        <mxCell id="0A9ruwSQqc1JBdKSLowd-62" value="" style="shape=requiredInterface;html=1;verticalLabelPosition=bottom;sketch=0;shadow=0;strokeWidth=1;rotation=-90;" vertex="1" parent="1">
          <mxGeometry x="91.63" y="192.63" width="5" height="8.75" as="geometry" />
        </mxCell>
        <mxCell id="0A9ruwSQqc1JBdKSLowd-63" value="" style="shape=requiredInterface;html=1;verticalLabelPosition=bottom;sketch=0;shadow=0;strokeWidth=1;rotation=90;" vertex="1" parent="1">
          <mxGeometry x="100.63" y="204.63" width="5" height="8.75" as="geometry" />
        </mxCell>
        <mxCell id="0A9ruwSQqc1JBdKSLowd-64" value="" style="shape=requiredInterface;html=1;verticalLabelPosition=bottom;sketch=0;shadow=0;strokeWidth=1;rotation=-90;" vertex="1" parent="1">
          <mxGeometry x="91.63" y="199.63" width="5" height="8.75" as="geometry" />
        </mxCell>
        <mxCell id="0A9ruwSQqc1JBdKSLowd-65" value="" style="endArrow=none;html=1;rounded=0;shadow=0;sketch=0;strokeWidth=1;curved=1;" edge="1" parent="1">
          <mxGeometry width="50" height="50" relative="1" as="geometry">
            <mxPoint x="90" y="209.76" as="sourcePoint" />
            <mxPoint x="110" y="190.25" as="targetPoint" />
          </mxGeometry>
        </mxCell>
        <mxCell id="0A9ruwSQqc1JBdKSLowd-66" value="" style="shape=requiredInterface;html=1;verticalLabelPosition=bottom;sketch=0;shadow=0;strokeWidth=1;rotation=90;" vertex="1" parent="1">
          <mxGeometry x="320.63" y="191.13" width="5" height="8.75" as="geometry" />
        </mxCell>
        <mxCell id="0A9ruwSQqc1JBdKSLowd-67" value="" style="shape=requiredInterface;html=1;verticalLabelPosition=bottom;sketch=0;shadow=0;strokeWidth=1;rotation=-90;" vertex="1" parent="1">
          <mxGeometry x="311.63" y="186.13" width="5" height="8.75" as="geometry" />
        </mxCell>
        <mxCell id="0A9ruwSQqc1JBdKSLowd-68" value="" style="shape=requiredInterface;html=1;verticalLabelPosition=bottom;sketch=0;shadow=0;strokeWidth=1;rotation=90;" vertex="1" parent="1">
          <mxGeometry x="320.63" y="198.13" width="5" height="8.75" as="geometry" />
        </mxCell>
        <mxCell id="0A9ruwSQqc1JBdKSLowd-69" value="" style="shape=requiredInterface;html=1;verticalLabelPosition=bottom;sketch=0;shadow=0;strokeWidth=1;rotation=-90;" vertex="1" parent="1">
          <mxGeometry x="311.63" y="193.13" width="5" height="8.75" as="geometry" />
        </mxCell>
        <mxCell id="0A9ruwSQqc1JBdKSLowd-70" value="" style="shape=requiredInterface;html=1;verticalLabelPosition=bottom;sketch=0;shadow=0;strokeWidth=1;rotation=90;" vertex="1" parent="1">
          <mxGeometry x="320.63" y="205.13" width="5" height="8.75" as="geometry" />
        </mxCell>
        <mxCell id="0A9ruwSQqc1JBdKSLowd-71" value="" style="shape=requiredInterface;html=1;verticalLabelPosition=bottom;sketch=0;shadow=0;strokeWidth=1;rotation=-90;" vertex="1" parent="1">
          <mxGeometry x="311.63" y="200.13" width="5" height="8.75" as="geometry" />
        </mxCell>
        <mxCell id="0A9ruwSQqc1JBdKSLowd-72" value="" style="endArrow=none;html=1;rounded=0;shadow=0;sketch=0;strokeWidth=1;curved=1;" edge="1" parent="1">
          <mxGeometry width="50" height="50" relative="1" as="geometry">
            <mxPoint x="310" y="210.26" as="sourcePoint" />
            <mxPoint x="330" y="190.75" as="targetPoint" />
          </mxGeometry>
        </mxCell>
        <mxCell id="0A9ruwSQqc1JBdKSLowd-73" value="" style="shape=requiredInterface;html=1;verticalLabelPosition=bottom;sketch=0;shadow=0;strokeWidth=1;rotation=90;" vertex="1" parent="1">
          <mxGeometry x="460.63" y="191.13" width="5" height="8.75" as="geometry" />
        </mxCell>
        <mxCell id="0A9ruwSQqc1JBdKSLowd-74" value="" style="shape=requiredInterface;html=1;verticalLabelPosition=bottom;sketch=0;shadow=0;strokeWidth=1;rotation=-90;" vertex="1" parent="1">
          <mxGeometry x="451.63" y="186.13" width="5" height="8.75" as="geometry" />
        </mxCell>
        <mxCell id="0A9ruwSQqc1JBdKSLowd-75" value="" style="shape=requiredInterface;html=1;verticalLabelPosition=bottom;sketch=0;shadow=0;strokeWidth=1;rotation=90;" vertex="1" parent="1">
          <mxGeometry x="460.63" y="198.13" width="5" height="8.75" as="geometry" />
        </mxCell>
        <mxCell id="0A9ruwSQqc1JBdKSLowd-76" value="" style="shape=requiredInterface;html=1;verticalLabelPosition=bottom;sketch=0;shadow=0;strokeWidth=1;rotation=-90;" vertex="1" parent="1">
          <mxGeometry x="451.63" y="193.13" width="5" height="8.75" as="geometry" />
        </mxCell>
        <mxCell id="0A9ruwSQqc1JBdKSLowd-77" value="" style="shape=requiredInterface;html=1;verticalLabelPosition=bottom;sketch=0;shadow=0;strokeWidth=1;rotation=90;" vertex="1" parent="1">
          <mxGeometry x="460.63" y="205.13" width="5" height="8.75" as="geometry" />
        </mxCell>
        <mxCell id="0A9ruwSQqc1JBdKSLowd-78" value="" style="shape=requiredInterface;html=1;verticalLabelPosition=bottom;sketch=0;shadow=0;strokeWidth=1;rotation=-90;" vertex="1" parent="1">
          <mxGeometry x="451.63" y="200.13" width="5" height="8.75" as="geometry" />
        </mxCell>
        <mxCell id="0A9ruwSQqc1JBdKSLowd-79" value="" style="endArrow=none;html=1;rounded=0;shadow=0;sketch=0;strokeWidth=1;curved=1;" edge="1" parent="1">
          <mxGeometry width="50" height="50" relative="1" as="geometry">
            <mxPoint x="450" y="210.26" as="sourcePoint" />
            <mxPoint x="470" y="190.75" as="targetPoint" />
          </mxGeometry>
        </mxCell>
        <mxCell id="0A9ruwSQqc1JBdKSLowd-80" value="LPF" style="text;html=1;strokeColor=none;fillColor=none;align=center;verticalAlign=middle;whiteSpace=wrap;rounded=0;shadow=0;" vertex="1" parent="1">
          <mxGeometry x="161" y="190" width="30" height="20" as="geometry" />
        </mxCell>
        <mxCell id="0A9ruwSQqc1JBdKSLowd-81" value="AGC" style="text;html=1;strokeColor=none;fillColor=none;align=center;verticalAlign=middle;whiteSpace=wrap;rounded=0;shadow=0;" vertex="1" parent="1">
          <mxGeometry x="516" y="191.13" width="40" height="20" as="geometry" />
        </mxCell>
        <mxCell id="0A9ruwSQqc1JBdKSLowd-82" value="FM检波" style="text;html=1;strokeColor=none;fillColor=none;align=center;verticalAlign=middle;whiteSpace=wrap;rounded=0;shadow=0;" vertex="1" parent="1">
          <mxGeometry x="613" y="199" width="15" as="geometry" />
        </mxCell>
        <mxCell id="0A9ruwSQqc1JBdKSLowd-83" value="音频放大" style="text;html=1;strokeColor=none;fillColor=none;align=center;verticalAlign=middle;whiteSpace=wrap;rounded=0;shadow=0;" vertex="1" parent="1">
          <mxGeometry x="670" y="186.5" width="20" height="30" as="geometry" />
        </mxCell>
        <mxCell id="0A9ruwSQqc1JBdKSLowd-84" value="Filter1" style="text;html=1;strokeColor=none;fillColor=none;align=center;verticalAlign=middle;whiteSpace=wrap;rounded=0;shadow=0;" vertex="1" parent="1">
          <mxGeometry x="70" y="230" width="60" height="30" as="geometry" />
        </mxCell>
        <mxCell id="0A9ruwSQqc1JBdKSLowd-85" value="Filter2" style="text;html=1;strokeColor=none;fillColor=none;align=center;verticalAlign=middle;whiteSpace=wrap;rounded=0;shadow=0;" vertex="1" parent="1">
          <mxGeometry x="290" y="230" width="60" height="30" as="geometry" />
        </mxCell>
        <mxCell id="0A9ruwSQqc1JBdKSLowd-86" value="Filter3" style="text;html=1;strokeColor=none;fillColor=none;align=center;verticalAlign=middle;whiteSpace=wrap;rounded=0;shadow=0;" vertex="1" parent="1">
          <mxGeometry x="430" y="230" width="60" height="30" as="geometry" />
        </mxCell>
        <mxCell id="0A9ruwSQqc1JBdKSLowd-87" value="f_RF=433MHz" style="text;html=1;strokeColor=none;fillColor=none;align=center;verticalAlign=middle;whiteSpace=wrap;rounded=0;shadow=0;" vertex="1" parent="1">
          <mxGeometry x="60" y="120" width="60" height="30" as="geometry" />
        </mxCell>
        <mxCell id="0A9ruwSQqc1JBdKSLowd-88" value="f_L1" style="text;html=1;strokeColor=none;fillColor=none;align=center;verticalAlign=middle;whiteSpace=wrap;rounded=0;shadow=0;" vertex="1" parent="1">
          <mxGeometry x="235" y="330" width="30" height="10" as="geometry" />
        </mxCell>
        <mxCell id="0A9ruwSQqc1JBdKSLowd-89" value="f_L2" style="text;html=1;strokeColor=none;fillColor=none;align=center;verticalAlign=middle;whiteSpace=wrap;rounded=0;shadow=0;" vertex="1" parent="1">
          <mxGeometry x="375" y="330" width="30" height="10" as="geometry" />
        </mxCell>
      </root>
    </mxGraphModel>
  </diagram>
</mxfile>
